<svg width="50" height="50" viewBox="0 0 50 50" fill="none" xmlns="http://www.w3.org/2000/svg">
  <!-- Основний відбиток лапи (велика подушечка) -->
  <ellipse cx="25" cy="38" rx="9" ry="7" fill="#ffffff" opacity="0.95"/>
  <ellipse cx="25" cy="38" rx="8.5" ry="6.5" fill="#1a1a1a" opacity="0.9"/>
  
  <!-- Подушечки пальців -->
  <ellipse cx="18" cy="22" rx="4.5" ry="5.5" fill="#ffffff" opacity="0.95"/>
  <ellipse cx="18" cy="22" rx="4" ry="5" fill="#1a1a1a" opacity="0.9"/>
  
  <ellipse cx="25" cy="20" rx="4.5" ry="5.5" fill="#ffffff" opacity="0.95"/>
  <ellipse cx="25" cy="20" rx="4" ry="5" fill="#1a1a1a" opacity="0.9"/>
  
  <ellipse cx="32" cy="22" rx="4.5" ry="5.5" fill="#ffffff" opacity="0.95"/>
  <ellipse cx="32" cy="22" rx="4" ry="5" fill="#1a1a1a" opacity="0.9"/>
  
  <ellipse cx="14" cy="27" rx="4" ry="5" fill="#ffffff" opacity="0.95"/>
  <ellipse cx="14" cy="27" rx="3.5" ry="4.5" fill="#1a1a1a" opacity="0.9"/>
  
  <ellipse cx="36" cy="27" rx="4" ry="5" fill="#ffffff" opacity="0.95"/>
  <ellipse cx="36" cy="27" rx="3.5" ry="4.5" fill="#1a1a1a" opacity="0.9"/>
  
  <!-- Кігті (невеликі трикутники) -->
  <path d="M 15.5 15 L 17.5 19 L 13.5 19 Z" fill="#1a1a1a" opacity="0.8"/>
  <path d="M 22.5 13 L 24.5 17 L 20.5 17 Z" fill="#1a1a1a" opacity="0.8"/>
  <path d="M 29.5 15 L 31.5 19 L 27.5 19 Z" fill="#1a1a1a" opacity="0.8"/>
  <path d="M 12 22 L 14 26 L 10 26 Z" fill="#1a1a1a" opacity="0.8"/>
  <path d="M 38 22 L 36 26 L 40 26 Z" fill="#1a1a1a" opacity="0.8"/>
</svg>
